HIERARCHY
ROOT Hips
{
 OFFSET 0.000000 0.000000 0.000000
 CHANNELS 6 Xposition Yposition Zposition Yrotation Xrotation Zrotation
 JOINT Chest
 {
  OFFSET 0.000000 9.588913 -0.003946
  CHANNELS 3 Yrotation Xrotation Zrotation
  JOINT Chest2
  {
   OFFSET 0.000000 9.541882 0.008053
   CHANNELS 3 Yrotation Xrotation Zrotation
   JOINT Chest3
   {
    OFFSET 0.000000 9.501360 0.000000
    CHANNELS 3 Yrotation Xrotation Zrotation
    JOINT Chest4
    {
     OFFSET 0.000000 9.491660 0.000000
     CHANNELS 3 Yrotation Xrotation Zrotation
     JOINT Neck
     {
      OFFSET 0.000000 14.331917 0.000000
      CHANNELS 3 Yrotation Xrotation Zrotation
      JOINT Head
      {
       OFFSET 0.000000 8.884799 0.017034
       CHANNELS 3 Yrotation Xrotation Zrotation
       End Site
       {
        OFFSET 0.000000 16.896195 0.008993
       }
      }
     }
     JOINT RightCollar
     {
      OFFSET -2.923010 9.499495 0.000000
      CHANNELS 3 Yrotation Xrotation Zrotation
      JOINT RightShoulder
      {
       OFFSET -13.795216 0.000000 0.000000
       CHANNELS 3 Yrotation Xrotation Zrotation
       JOINT RightElbow
       {
        OFFSET -30.272209 0.000000 0.000000
        CHANNELS 3 Yrotation Xrotation Zrotation
        JOINT RightWrist
        {
         OFFSET -24.478199 0.000000 0.000000
         CHANNELS 3 Yrotation Xrotation Zrotation
         End Site
         {
          OFFSET -18.090752 0.000000 0.000000
         }
        }
       }
      }
     }
     JOINT LeftCollar
     {
      OFFSET 2.923010 9.499495 0.000000
      CHANNELS 3 Yrotation Xrotation Zrotation
      JOINT LeftShoulder
      {
       OFFSET 13.795216 0.000000 0.000000
       CHANNELS 3 Yrotation Xrotation Zrotation
       JOINT LeftElbow
       {
        OFFSET 30.272209 0.000000 0.000000
        CHANNELS 3 Yrotation Xrotation Zrotation
        JOINT LeftWrist
        {
         OFFSET 24.478199 0.000000 0.000000
         CHANNELS 3 Yrotation Xrotation Zrotation
         End Site
         {
          OFFSET 18.090752 0.000000 0.000000
         }
        }
       }
      }
     }
    }
   }
  }
 }
 JOINT RightHip
 {
  OFFSET -7.826875 0.019532 0.001973
  CHANNELS 3 Yrotation Xrotation Zrotation
  JOINT RightKnee
  {
   OFFSET 0.000000 -40.546152 -0.001885
   CHANNELS 3 Yrotation Xrotation Zrotation
   JOINT RightAnkle
   {
    OFFSET 0.000000 -39.417092 -0.003189
    CHANNELS 3 Yrotation Xrotation Zrotation
    JOINT RightToe
    {
     OFFSET 0.000000 -7.579396 17.243563
     CHANNELS 3 Yrotation Xrotation Zrotation
     End Site
     {
      OFFSET 0.000000 -1.500329 6.694466
     }
    }
   }
  }
 }
 JOINT LeftHip
 {
  OFFSET 7.826875 0.019532 0.001973
  CHANNELS 3 Yrotation Xrotation Zrotation
  JOINT LeftKnee
  {
   OFFSET 0.000000 -40.546152 -0.001885
   CHANNELS 3 Yrotation Xrotation Zrotation
   JOINT LeftAnkle
   {
    OFFSET 0.000000 -39.417092 -0.003189
    CHANNELS 3 Yrotation Xrotation Zrotation
    JOINT LeftToe
    {
     OFFSET 0.000000 -7.579396 17.243563
     CHANNELS 3 Yrotation Xrotation Zrotation
     End Site
     {
      OFFSET 0.000000 -1.500329 6.694466
     }
    }
   }
  }
 }
}
MOTION
Frames: 12
Frame Time: 0.008333
-120.573981 88.254353 107.261802 26.337851 -9.417464 -0.611589 3.138000 4.378471 -1.166395 1.769762 2.393424 -0.257706 2.211002 2.992932 -0.310627 1.769764 2.393423 -0.257706 7.445870 22.148444 0.186114 8.102588 -1.715556 -1.510298 -5.492778 4.493415 -2.138957 15.330380 13.431566 98.995921 16.912694 19.554748 18.940862 17.192338 -14.787012 -1.727586 -6.631455 4.297519 -0.240744 -19.777950 7.206743 -89.343098 -15.094069 39.441820 -22.789782 -15.251684 3.831490 -2.373025 -18.397342 11.186606 -15.272755 14.819564 1.785263 -2.294076 11.142639 -5.885670 10.375282 0.291093 -1.107979 0.068249 14.358930 16.103370 5.144241 11.993531 -2.999020 -0.358411 12.591305 -6.153909 -2.570310 0.091981 1.119664 0.107761
-120.495247 88.249290 107.166924 26.157119 -9.424271 -0.645672 3.145578 4.414121 -1.164340 1.773180 2.415260 -0.251826 2.215307 3.020201 -0.303149 1.773182 2.415260 -0.251826 7.475219 22.152813 0.162077 8.141812 -1.707023 -1.543418 -5.491201 4.504673 -2.122477 15.215521 13.514547 98.981958 16.925622 19.384099 18.833103 17.105792 -14.767835 -1.673273 -6.597117 4.311468 -0.247786 -19.643107 7.213018 -89.359911 -15.048941 39.419181 -22.723681 -15.244884 3.834040 -2.362476 -18.317254 11.030950 -15.288447 14.881031 1.915131 -2.269053 11.196112 -5.859097 10.451028 0.289873 -1.121567 0.071429 14.390212 16.150726 5.113463 12.005017 -3.064882 -0.422580 12.696413 -6.189846 -2.480579 0.089480 1.136755 0.114321
-120.416438 88.244670 107.069501 25.973813 -9.439723 -0.681633 3.153908 4.454221 -1.162715 1.776941 2.439886 -0.245869 2.220043 3.050955 -0.295557 1.776944 2.439885 -0.245869 7.503382 22.154633 0.140738 8.178998 -1.701677 -1.573327 -5.487783 4.512354 -2.106424 15.120558 13.584711 98.958680 16.953960 19.238764 18.726294 17.005719 -14.749666 -1.609406 -6.565634 4.316304 -0.255174 -19.523847 7.212904 -89.371909 -15.016533 39.400062 -22.668877 -15.225586 3.831761 -2.371633 -18.230556 10.874251 -15.302679 14.944163 2.061184 -2.239335 11.243944 -5.833768 10.521810 0.287809 -1.136446 0.075058 14.417177 16.204274 5.083404 12.020006 -3.129185 -0.485268 12.801265 -6.229074 -2.391137 0.086617 1.154916 0.120310
-120.337557 88.240542 106.969107 25.792429 -9.462448 -0.718530 3.162657 4.497545 -1.161316 1.780384 2.466776 -0.240254 2.224378 3.084542 -0.288385 1.780386 2.466776 -0.240254 7.528353 22.154602 0.122913 8.211685 -1.698902 -1.598659 -5.482354 4.522442 -2.089535 15.021564 13.645702 98.921780 17.004328 19.129431 18.632480 16.887951 -14.726446 -1.554686 -6.544686 4.311341 -0.268269 -19.418969 7.216816 -89.379725 -15.000934 39.386232 -22.616070 -15.198627 3.823196 -2.395733 -18.143473 10.715700 -15.317823 15.009973 2.220290 -2.205382 11.288307 -5.808279 10.591934 0.285552 -1.152980 0.076381 14.435890 16.261306 5.050967 12.044420 -3.191238 -0.548103 12.908517 -6.270799 -2.299157 0.084349 1.173685 0.125543
-120.259161 88.236963 106.865842 25.613506 -9.491410 -0.758504 3.170783 4.543808 -1.159234 1.783157 2.495723 -0.234897 2.227875 3.120700 -0.281529 1.783160 2.495722 -0.234897 7.550831 22.152741 0.108716 8.240632 -1.698622 -1.619448 -5.472985 4.538231 -2.072757 14.909539 13.696024 98.871493 17.075809 19.056294 18.556778 16.755998 -14.706009 -1.513528 -6.530633 4.297394 -0.287900 -19.328832 7.234537 -89.384294 -15.005966 39.370523 -22.559351 -15.165061 3.812543 -2.427952 -18.056353 10.554699 -15.332152 15.080047 2.391697 -2.167292 11.333727 -5.781810 10.661696 0.287025 -1.172707 0.075867 14.450640 16.319981 5.020712 12.074804 -3.250344 -0.609913 13.011654 -6.314672 -2.207931 0.082308 1.192442 0.130927
-120.181361 88.233950 106.759578 25.438339 -9.524363 -0.800389 3.176914 4.592180 -1.158735 1.784828 2.525611 -0.230163 2.229991 3.158037 -0.275454 1.784830 2.525611 -0.230163 7.571863 22.149957 0.098968 8.266846 -1.699695 -1.635035 -5.460842 4.557218 -2.058223 14.791040 13.738173 98.813397 17.160800 19.007625 18.496884 16.612842 -14.702075 -1.468683 -6.518618 4.284204 -0.309928 -19.246395 7.266586 -89.385951 -15.039747 39.351547 -22.502516 -15.116043 3.801120 -2.462352 -17.967776 10.390371 -15.342665 15.150263 2.576378 -2.128007 11.372131 -5.755478 10.733020 0.289563 -1.193738 0.073199 14.462412 16.376704 4.989845 12.104532 -3.304843 -0.666276 13.115174 -6.359384 -2.120222 0.080542 1.210210 0.136727
-120.103946 88.231527 106.650245 25.268559 -9.559081 -0.841310 3.181906 4.641808 -1.161318 1.785498 2.555572 -0.226915 2.230846 3.195472 -0.271243 1.785501 2.555572 -0.226914 7.589924 22.146887 0.094316 8.288445 -1.701530 -1.644350 -5.451888 4.574707 -2.047696 14.676269 13.775822 98.755230 17.246699 18.966591 18.444773 16.462266 -14.711432 -1.413449 -6.512291 4.278898 -0.330090 -19.158628 7.307173 -89.385384 -15.100473 39.335396 -22.447842 -15.050024 3.787906 -2.496569 -17.876424 10.223081 -15.351930 15.217266 2.769149 -2.089654 11.407141 -5.728397 10.809382 0.291711 -1.215595 0.067783 14.466626 16.427735 4.950827 12.131956 -3.353095 -0.716346 13.236750 -6.403561 -2.031838 0.080193 1.226405 0.141258
-120.027222 88.229790 106.538508 25.106169 -9.594976 -0.883189 3.185455 4.692282 -1.164883 1.785167 2.585612 -0.224726 2.230442 3.233009 -0.268364 1.785170 2.585612 -0.224726 7.603712 22.143930 0.093719 8.304206 -1.703749 -1.648226 -5.447222 4.591298 -2.041780 14.574081 13.805964 98.697634 17.325960 18.913302 18.397749 16.308107 -14.723568 -1.354685 -6.512648 4.278601 -0.348534 -19.057477 7.352848 -89.383114 -15.175573 39.328013 -22.396619 -14.983123 3.773755 -2.528717 -17.782103 10.055057 -15.359972 15.282206 2.965450 -2.052072 11.445278 -5.698476 10.891059 0.296562 -1.239916 0.060503 14.458066 16.472455 4.906769 12.157953 -3.393320 -0.760349 13.370007 -6.447489 -1.943403 0.080243 1.240692 0.143797
-119.951325 88.228814 106.424965 24.951865 -9.630642 -0.926919 3.186175 4.741347 -1.169016 1.783632 2.615089 -0.223064 2.228529 3.269847 -0.266154 1.783634 2.615090 -0.223064 7.615174 22.143049 0.096433 8.316566 -1.703822 -1.647926 -5.443261 4.610804 -2.037207 14.491831 13.829219 98.637181 17.403672 18.832939 18.358271 16.141374 -14.740418 -1.287773 -6.517370 4.283205 -0.367220 -18.942200 7.401288 -89.377473 -15.255742 39.330745 -22.352663 -14.931873 3.752171 -2.554403 -17.683652 9.885798 -15.362403 15.344885 3.168354 -2.016459 11.474906 -5.666854 10.978856 0.300536 -1.264867 0.050729 14.435148 16.510988 4.861787 12.184662 -3.424969 -0.798085 13.496451 -6.490439 -1.859172 0.079241 1.251648 0.145274
-119.881661 88.226783 106.300473 24.742346 -9.597996 -0.967242 3.245301 4.717510 -1.172372 1.781280 2.643536 -0.222087 2.225590 3.305397 -0.264812 1.781282 2.643536 -0.222087 7.627255 22.146379 0.104042 8.328532 -1.699002 -1.642392 -5.438920 4.635752 -2.029868 14.427074 13.853268 98.574656 17.487614 18.727480 18.322629 15.954559 -14.765457 -1.204520 -6.527155 4.299754 -0.384007 -18.818263 7.446526 -89.368575 -15.336193 39.339061 -22.315232 -14.896069 3.716288 -2.571090 -17.506417 9.631236 -15.353378 15.407909 3.347167 -1.964485 11.561217 -5.586471 11.112191 0.234028 -1.307186 0.010088 14.460778 16.471193 4.803856 12.212015 -3.445978 -0.833157 13.625239 -6.534340 -1.774785 0.079548 1.262324 0.145830
-119.809942 88.227037 106.183293 24.578154 -9.611536 -1.021253 3.267455 4.738500 -1.166676 1.778156 2.671288 -0.221485 2.221685 3.340082 -0.263948 1.778159 2.671288 -0.221484 7.639906 22.153378 0.116573 8.340030 -1.689931 -1.631585 -5.436108 4.664873 -2.022230 14.366696 13.881273 98.511315 17.574604 18.609376 18.285227 15.758736 -14.799157 -1.110988 -6.540131 4.326768 -0.399453 -18.698340 7.485325 -89.358170 -15.411308 39.342240 -22.282332 -14.865799 3.670833 -2.580847 -17.370811 9.472608 -15.358569 15.469557 3.478846 -1.894920 11.589758 -5.507089 11.205426 0.221716 -1.331742 -0.006027 14.458694 16.468560 4.767132 12.238930 -3.457218 -0.868450 13.756701 -6.579788 -1.689359 0.081132 1.271450 0.144851
-119.734565 88.228974 106.069791 24.446421 -9.649874 -1.068177 3.263141 4.787755 -1.170989 1.774503 2.698544 -0.220995 2.217116 3.374147 -0.263231 1.774505 2.698544 -0.220994 7.650982 22.162008 0.131418 8.349209 -1.679143 -1.617869 -5.436575 4.696389 -2.017328 14.299599 13.911313 98.444479 17.655414 18.480835 18.251313 15.573638 -14.836046 -1.020914 -6.553862 4.355818 -0.415788 -18.592499 7.519968 -89.348131 -15.474420 39.329313 -22.250962 -14.833281 3.624005 -2.589044 -17.252361 9.317326 -15.346478 15.528149 3.683569 -1.874721 11.592734 -5.464963 11.311540 0.224853 -1.359273 -0.016957 14.444012 16.490212 4.731026 12.274127 -3.464266 -0.902448 13.848248 -6.615250 -1.606046 0.082178 1.270491 0.143373
